<svg version="1.1" id="Layer_1" xmlns="http://www.w3.org/2000/svg" xmlns:xlink="http://www.w3.org/1999/xlink" x="0px" y="0px"
	 width="100%" viewBox="0 0 1024 256" enable-background="new 0 0 1024 256" xml:space="preserve">
<path fill="#000000" opacity="1.000000" stroke="none" 
	d="
M182.033356,186.064651 
	C175.182648,183.347717 168.761444,180.565796 162.166199,178.287704 
	C155.348160,175.932678 149.956131,171.579483 144.712631,166.932083 
	C140.044525,162.794662 134.919922,159.691925 128.847641,157.853043 
	C123.359680,156.191086 119.160858,152.107269 114.786346,148.517914 
	C107.711372,142.712799 100.925293,136.539688 92.708679,132.262543 
	C87.296707,129.445358 81.780235,127.643311 75.522812,127.953293 
	C68.710159,128.290771 61.868294,128.068787 55.039429,128.035553 
	C51.633224,128.018967 48.294315,127.252335 48.239685,123.137566 
	C48.187969,119.241829 51.576107,118.415291 54.644035,118.288895 
	C60.963833,118.028511 67.371750,117.453644 73.608467,118.174973 
	C84.360443,119.418526 92.609871,114.716698 100.475616,108.532578 
	C106.233040,104.006035 111.656273,99.010040 117.669113,94.862045 
	C129.970840,86.375626 142.784454,78.415077 156.322357,72.323158 
	C169.683289,66.310898 183.316467,60.560097 198.249710,58.273170 
	C213.991058,55.862488 229.038651,56.603691 243.886597,62.146278 
	C246.886322,63.266045 249.897110,64.212135 253.129395,63.718288 
	C267.647278,61.500164 279.888824,67.149414 291.394531,74.979836 
	C296.550262,78.488678 301.766510,81.377327 308.089264,82.271568 
	C320.653320,84.048553 330.997559,90.249664 340.961487,97.975334 
	C351.970032,106.510925 363.731537,114.146904 376.129059,120.660049 
	C380.264160,122.832466 384.763733,122.901039 389.282227,122.782089 
	C392.561981,122.695747 395.761566,123.473656 395.860474,127.243385 
	C395.964630,131.213013 392.872498,132.567780 389.287354,132.264282 
	C376.209290,131.157196 367.543823,139.090973 358.888885,147.003021 
	C351.363800,153.882202 343.678040,160.470612 333.762482,163.757828 
	C332.998474,164.011108 332.230560,164.500824 331.668793,165.079147 
	C319.688873,177.412338 304.600616,182.761490 287.945648,184.612244 
	C283.082428,185.152679 278.677460,186.926544 274.280029,189.048660 
	C266.790466,192.662949 258.862183,194.195572 250.505966,192.627579 
	C248.891876,192.324707 247.068314,192.023880 245.557068,192.463531 
	C233.488174,195.974533 221.578140,194.059311 209.532013,192.150681 
	C200.342545,190.694656 190.984695,190.290329 182.033356,186.064651 
M106.715393,115.980721 
	C106.098221,116.824463 104.435478,116.838631 104.749481,118.716225 
	C126.800514,118.967941 148.818268,117.639374 171.093109,118.139397 
	C163.616531,109.071457 156.398788,100.228760 145.736923,94.839127 
	C149.023270,93.073975 151.542267,94.458298 154.031647,95.482903 
	C163.039871,99.190613 169.870651,105.794983 176.484680,112.643440 
	C180.616119,116.921303 185.253540,119.270096 191.523239,118.871437 
	C198.477982,118.429230 205.495255,118.613205 212.462921,119.555573 
	C215.552002,119.973358 218.692154,119.760658 222.194946,118.303665 
	C217.877533,112.811134 213.861557,107.577881 209.713486,102.451500 
	C201.701569,92.549942 193.228241,83.175179 180.803741,78.616508 
	C175.962662,76.840263 171.230148,76.373131 166.302124,78.729424 
	C145.228180,88.805702 125.112335,100.387985 106.715393,115.980721 
M243.247757,182.098480 
	C241.610489,184.083115 243.365616,183.778107 244.385239,183.648010 
	C246.853928,183.333008 249.263535,182.694138 251.812012,183.162933 
	C264.702667,185.534164 275.053986,178.542099 285.179047,172.780334 
	C294.433716,167.513901 299.835052,157.475006 307.443115,150.030380 
	C308.703827,148.796738 309.705414,146.695160 312.835419,147.570969 
	C307.651917,156.380005 302.072235,164.379990 296.423859,172.565765 
	C307.922180,170.338943 318.044128,165.618088 326.865631,158.438446 
	C330.226044,155.703430 333.359650,152.886673 337.310699,150.914749 
	C345.635406,146.759918 351.741608,139.772202 359.911011,133.436478 
	C357.154327,133.229462 355.852539,133.044647 354.551086,133.047012 
	C335.067841,133.082428 315.584564,133.185150 296.101440,133.163666 
	C291.807251,133.158920 288.334259,134.972961 285.226105,137.541641 
	C280.731781,141.255905 276.673401,145.380844 273.188049,150.141953 
	C264.632080,161.829742 256.106171,173.597885 243.247757,182.098480 
M313.874237,93.615601 
	C310.003876,92.442741 306.292877,90.415840 301.218475,91.220818 
	C306.852600,99.999626 312.054077,108.372826 318.966797,116.905312 
	C314.456360,116.959503 313.028534,114.729759 311.306183,113.096489 
	C303.662811,105.848488 297.943542,96.949844 290.897034,89.189384 
	C278.956970,76.039513 263.871613,71.371971 245.198883,72.491096 
	C258.308777,85.567169 265.743958,101.583221 277.905640,113.954170 
	C281.872711,117.989532 286.331512,122.382446 292.226135,122.402870 
	C313.882843,122.477898 335.406281,125.643509 357.076782,124.913200 
	C358.409973,124.868271 360.127350,125.498322 361.193390,123.177971 
	C359.682465,122.273994 358.115112,121.418564 356.632660,120.435173 
	C349.981995,116.023422 343.019012,111.995781 336.810577,107.027451 
	C329.970154,101.553322 322.934448,96.707130 313.874237,93.615601 
M244.041855,172.534882 
	C257.961151,161.701599 265.786133,145.640717 279.354218,133.091263 
	C272.692169,131.563797 267.331512,132.479782 262.112671,131.518494 
	C245.878967,128.528366 232.572052,133.280807 223.049591,147.217819 
	C222.955734,147.355179 222.852890,147.487183 222.745926,147.614716 
	C212.643311,159.661560 201.304001,169.994003 185.671509,174.386917 
	C185.037872,174.564972 184.434753,174.865952 184.449310,176.165192 
	C188.328522,178.490967 192.059494,181.303085 197.327408,181.326874 
	C201.961380,181.347794 206.781998,181.616196 211.187195,182.909500 
	C224.304062,186.760330 234.086990,180.683105 244.041855,172.534882 
M219.329193,103.187553 
	C220.997971,105.259087 222.523743,107.468742 224.364319,109.374336 
	C228.629623,113.790276 232.753632,118.937363 239.113876,119.911179 
	C250.447800,121.646500 261.960693,121.157295 273.407196,121.362984 
	C273.608795,121.366608 273.818695,120.909294 274.373566,120.256859 
	C269.340668,114.884766 264.338989,109.404457 260.095947,103.242661 
	C255.297394,96.274185 250.864792,89.008400 245.047333,82.758751 
	C234.752975,71.699608 223.356506,63.531025 207.020874,67.030647 
	C203.623611,67.758446 200.005539,67.552406 196.670822,68.450806 
	C192.492264,69.576546 187.937042,69.841591 184.011765,72.627266 
	C201.336685,80.588356 208.495911,88.527679 219.329193,103.187553 
M218.073654,129.429108 
	C210.921646,129.297241 203.744461,129.494476 196.624008,128.949966 
	C187.781265,128.273743 180.855911,131.470520 174.726288,137.595367 
	C167.271530,145.044327 159.288284,151.828079 148.467316,153.997467 
	C147.557892,154.179779 146.484741,154.457779 146.068848,156.161606 
	C149.597473,159.308533 153.967957,161.675476 157.918701,164.610291 
	C166.715576,171.145004 175.872986,171.416473 185.706436,167.479965 
	C197.798508,162.639282 207.123291,154.240936 215.555923,144.691055 
	C219.637848,140.068298 223.490326,135.242371 228.592957,131.511032 
	C228.330994,131.163376 228.069046,130.815720 227.807083,130.468063 
	C224.867462,130.137695 221.927856,129.807327 218.073654,129.429108 
M106.899529,127.173790 
	C104.042709,127.826630 105.727409,128.775116 106.800255,129.509277 
	C115.717819,135.611603 123.661217,143.031158 132.898499,148.708908 
	C136.707535,151.050156 140.563599,151.483322 144.827011,150.237396 
	C156.890091,146.712128 164.635452,137.569199 174.075424,128.330658 
	C151.072250,128.986176 129.384415,126.766800 106.899529,127.173790 
z"/>
<path fill="#000000" opacity="1.000000" stroke="none" 
	d="
M543.735596,44.326054 
	C551.187683,53.777565 553.389832,63.745102 549.229370,74.981567 
	C545.188171,85.895943 536.724976,92.219772 526.281860,97.241768 
	C529.460449,99.970596 532.993713,100.284393 536.103516,101.441505 
	C553.985168,108.095039 563.486755,124.961266 559.148743,143.237122 
	C556.171021,155.781952 547.814514,163.678665 535.956360,168.023499 
	C526.651367,171.432861 516.956726,173.043335 507.073700,173.048981 
	C488.924927,173.059357 470.775909,172.831848 452.627197,172.679535 
	C450.637665,172.662827 448.237244,172.811783 448.114838,170.013733 
	C448.010620,167.631256 450.212982,167.012497 451.983795,166.950592 
	C459.800201,166.677322 461.494293,164.093399 462.192841,155.756500 
	C462.415009,153.105164 462.644562,150.443573 462.647644,147.786407 
	C462.684387,116.133377 462.686768,84.480278 462.667358,52.827225 
	C462.666016,50.669670 462.578735,48.487888 462.255920,46.359146 
	C461.061279,38.480949 459.759521,37.252335 451.842651,36.234631 
	C449.682770,35.956978 447.010590,35.993858 447.042572,33.071003 
	C447.079590,29.691151 450.075897,30.019480 452.309937,30.043119 
	C473.279999,30.265015 494.294159,28.728016 515.208740,31.020002 
	C525.961548,32.198372 536.109497,35.293278 543.735596,44.326054 
M516.336426,105.142853 
	C507.000885,101.657318 497.190369,101.375771 487.414764,100.807281 
	C484.613098,100.644356 483.951508,102.242096 484.026031,104.520164 
	C484.585327,121.617729 483.112518,138.729553 484.349915,155.818329 
	C484.722839,160.968628 487.648926,164.354538 492.843445,164.601868 
	C500.102753,164.947510 507.431793,165.707886 514.655273,163.783554 
	C520.223755,162.300110 525.183228,159.952316 529.197693,155.643143 
	C542.242920,141.640228 538.806396,111.931946 516.336426,105.142853 
M510.622955,93.357658 
	C531.220947,87.651207 534.116394,54.762459 519.094971,43.631874 
	C509.446503,36.482502 498.493988,36.138180 487.209534,37.931858 
	C485.084625,38.269615 484.080261,39.639511 484.080109,41.768261 
	C484.078827,58.562519 484.086304,75.356781 484.066620,92.151016 
	C484.064178,94.211678 484.899078,95.264427 487.048157,95.118622 
	C494.648071,94.603035 502.374817,95.986877 510.622955,93.357658 
z"/>
<path fill="#000000" opacity="1.000000" stroke="none" 
	d="
M803.996338,60.982979 
	C808.826111,61.016964 813.158936,60.991192 817.487732,61.112469 
	C819.212769,61.160797 820.925720,61.641277 820.981873,63.849422 
	C821.031860,65.812859 819.457764,66.202354 817.962036,66.555809 
	C817.152100,66.747215 816.333130,66.900986 815.517639,67.068489 
	C808.638428,68.481354 807.285217,70.011688 807.258057,77.224129 
	C807.169739,100.716423 807.167542,124.209053 807.127136,147.701538 
	C807.114807,154.865402 807.075745,162.029221 807.070312,169.193085 
	C807.068359,171.724701 806.466003,173.817139 803.664368,174.582397 
	C801.051453,175.296082 799.114014,174.322418 797.602112,172.248840 
	C794.858093,168.485535 792.011841,164.789764 789.419495,160.924149 
	C782.198547,150.156113 772.395020,141.816574 763.213806,132.903732 
	C750.241638,120.310844 739.886536,105.592239 728.998108,91.299927 
	C726.718994,88.308266 724.406555,85.341995 721.239868,81.236732 
	C721.239868,85.818787 721.240540,89.074364 721.239807,92.329941 
	C721.235718,110.490967 721.159607,128.652466 721.279480,146.812668 
	C721.307922,151.120712 721.859680,155.441696 722.415283,159.725006 
	C722.922791,163.637543 725.213135,166.019333 729.265747,166.495773 
	C730.918457,166.690063 732.580139,166.858612 734.210632,167.177261 
	C735.868164,167.501175 736.916687,168.563446 736.830139,170.315216 
	C736.738220,172.175583 735.346069,172.941086 733.744507,172.930908 
	C723.256226,172.864304 712.758362,173.458511 702.282654,172.600494 
	C700.596069,172.462341 698.827576,171.912872 698.987061,169.660385 
	C699.119324,167.791443 700.649536,167.431488 702.187805,167.102158 
	C711.222839,165.167892 712.881409,163.257248 712.991333,153.187485 
	C713.158569,137.867218 713.050110,122.543877 713.044861,107.221848 
	C713.041443,97.243263 713.074219,87.264076 712.974854,77.286308 
	C712.907959,70.569885 711.376831,68.801910 704.885803,67.392670 
	C703.749084,67.145874 702.567810,67.082207 701.449036,66.779266 
	C699.778687,66.326958 698.953186,65.104805 699.133118,63.410690 
	C699.304871,61.794281 700.626648,61.149395 701.998474,61.137310 
	C710.657288,61.061008 719.317749,61.025307 727.975891,61.124317 
	C730.012695,61.147610 730.935364,62.999687 732.045288,64.483727 
	C743.404602,79.671516 754.521729,95.055458 767.543152,108.915199 
	C777.547302,119.563438 789.129639,128.671234 798.909607,140.310150 
	C798.909607,136.907471 798.912537,133.504776 798.909119,130.102097 
	C798.892639,113.940575 798.901001,97.778938 798.825012,81.617691 
	C798.814941,79.472427 798.391907,77.326828 798.126831,75.185509 
	C797.557800,70.588966 794.837036,68.095261 790.382385,67.296989 
	C788.907410,67.032677 787.428772,66.768761 785.975037,66.410637 
	C784.364563,66.013901 783.188049,65.060074 783.447388,63.259521 
	C783.684570,61.612835 785.190613,61.276711 786.509338,61.241207 
	C792.170410,61.088802 797.834717,61.057575 803.996338,60.982979 
z"/>
<path fill="#000000" opacity="1.000000" stroke="none" 
	d="
M654.256042,60.991463 
	C662.218933,61.005642 669.717529,60.980083 677.215149,61.055126 
	C679.171082,61.074699 681.691895,60.917999 681.957520,63.572342 
	C682.245605,66.451492 679.538452,66.504143 677.697205,66.598793 
	C672.082153,66.887444 669.737793,70.125420 669.402527,75.264069 
	C669.153442,79.081184 669.076965,82.911850 669.007874,86.738014 
	C668.692200,104.218468 669.608704,121.697624 668.501770,139.188232 
	C667.088745,161.516083 652.325806,172.844910 632.460999,174.905411 
	C617.525146,176.454651 603.544434,173.765656 592.487366,162.401230 
	C584.862000,154.563965 583.019531,144.599869 582.882385,134.294708 
	C582.631958,115.468628 582.818909,96.636978 582.771362,77.807793 
	C582.749390,69.098663 582.497253,68.819206 574.201843,66.979782 
	C572.393188,66.578743 571.010254,65.801834 570.910522,63.825188 
	C570.794678,61.530067 572.553589,61.076878 574.276978,61.068878 
	C586.939270,61.010098 599.601929,61.001625 612.264282,61.046616 
	C613.989624,61.052742 615.766663,61.574078 615.751343,63.765968 
	C615.737000,65.812828 614.128296,66.427864 612.376221,66.796234 
	C602.121521,68.952278 602.071167,69.082382 602.102600,79.609604 
	C602.151855,96.105789 601.959961,112.605118 602.235291,129.097015 
	C602.342896,135.540695 602.699890,142.041885 604.408813,148.367172 
	C607.326172,159.165131 614.760742,164.790161 625.378967,166.396179 
	C644.916687,169.351242 659.958313,157.490570 660.598633,137.751541 
	C661.273499,116.947235 660.901184,96.106110 660.814453,75.281784 
	C660.790466,69.525185 658.867981,67.632309 653.555115,67.120308 
	C650.889771,66.863449 647.400452,67.125481 647.683289,63.439014 
	C647.953857,59.913635 651.498535,61.286613 654.256042,60.991463 
z"/>
<path fill="#000000" opacity="1.000000" stroke="none" 
	d="
M890.094788,72.051926 
	C902.045837,100.661797 912.588745,129.430252 924.896118,157.482971 
	C927.148254,162.616394 929.576965,167.042023 936.145691,167.095490 
	C937.964172,167.110275 939.955261,168.115234 939.686768,170.473740 
	C939.422302,172.796844 937.385620,173.097412 935.486023,173.093369 
	C923.655212,173.068237 911.824036,173.034927 899.994019,172.912888 
	C898.008423,172.892395 895.549194,172.659271 895.305542,170.155365 
	C895.039246,167.418533 897.636902,167.341599 899.527344,166.946182 
	C905.795227,165.635178 906.719971,164.065247 904.483643,158.076767 
	C901.921509,151.216187 899.170532,144.422714 896.767944,137.507553 
	C895.641052,134.264130 893.866028,133.148117 890.453735,133.472015 
	C881.652710,134.307404 872.817810,134.400620 864.013184,133.439178 
	C860.380005,133.042450 858.274536,134.061813 856.854919,137.808594 
	C854.437134,144.190430 851.835876,150.506866 849.885864,157.048248 
	C847.916504,163.654633 849.453003,165.927353 856.069946,166.861282 
	C858.198853,167.161728 860.886414,167.154816 860.905640,170.060577 
	C860.925659,173.088745 858.204590,173.035110 856.077148,173.054825 
	C847.912781,173.130463 839.747131,173.111099 831.582214,173.073059 
	C829.551575,173.063599 827.243347,172.950546 827.001099,170.308380 
	C826.759583,167.674713 828.928406,167.018356 830.989319,166.810410 
	C835.956909,166.309219 838.457153,163.328262 840.186035,158.885284 
	C850.567505,132.207626 861.124573,105.598343 871.569641,78.945320 
	C873.513550,73.985069 875.159119,68.908546 877.055298,63.928699 
	C877.896729,61.718887 879.003418,59.592216 881.887695,59.549194 
	C884.825562,59.505375 885.756592,61.602921 886.635437,63.881744 
	C887.652954,66.520401 888.834717,69.095711 890.094788,72.051926 
M888.776978,126.599228 
	C892.536987,126.159874 890.684326,123.773712 890.112549,122.200890 
	C886.264160,111.613510 882.301331,101.067520 878.322876,90.527985 
	C877.989502,89.644684 877.436523,88.676682 875.611816,89.000191 
	C870.994934,101.007111 866.284058,113.258575 861.315674,126.179802 
	C870.895020,127.285507 879.500366,126.111191 888.776978,126.599228 
z"/>
</svg>